<svg xmlns="http://www.w3.org/2000/svg" viewBox="14 14 36 36"><path d="M32.7425 14.0008C32.2727 13.9816 32.0017 14.3065 31.9872 14.6343C31.9746 14.9193 32.1044 15.1224 32.3699 15.3322C32.6272 15.5356 32.7552 15.7803 32.7346 16.071C32.7145 16.3537 32.5516 16.5907 32.2479 16.709C31.9688 16.8178 31.7435 17.0011 31.6868 17.3104C31.6202 17.6735 31.8346 18.0344 32.208 18.1189C32.5601 18.1986 32.8181 18.5891 32.713 18.9785C32.5999 19.3976 32.2479 19.5947 31.8475 19.4704C31.4987 19.3621 31.1187 19.5589 30.9944 19.9154C30.8693 20.2744 31.0461 20.6619 31.3996 20.7956L32.2882 21.1448C32.6594 21.3063 32.8311 21.7421 32.6696 22.1134C32.5081 22.4847 32.0752 22.6558 31.7039 22.4943L30.8333 22.0773C30.4963 21.9169 30.0939 22.0527 29.9183 22.3859C29.7419 22.7204 29.8602 23.1308 30.1859 23.3172C30.1859 23.3172 31.5209 24.0839 32.3633 24.5723C32.7425 24.7921 32.8456 25.2964 32.6136 25.6665C32.3816 26.0365 31.8789 26.1579 31.5229 25.9163C31.1669 25.6748 29.4433 24.5036 29.4433 24.5036C29.1337 24.2925 28.7098 24.3634 28.4857 24.6675C28.2602 24.9736 28.3209 25.4026 28.6192 25.6347L32.4297 28.6692C32.799 28.9865 32.8416 29.5456 32.5243 29.9149C32.207 30.2842 31.6521 30.3274 31.2828 30.0101L27.7202 26.709C27.4461 26.4463 26.9983 26.4402 26.7287 26.7102C26.4609 26.9784 26.4647 27.4185 26.7226 27.6926L31.9801 33.3514C32.3357 33.7641 32.2878 34.3922 31.8751 34.7478C31.4624 35.1034 30.8384 35.0578 30.4828 34.6451L25.6578 28.6009C25.4251 28.3044 24.9968 28.2453 24.6915 28.4708C24.3876 28.6954 24.318 29.1194 24.5299 29.4287L29.7556 37.0887C30.0627 37.577 29.914 38.2243 29.4258 38.5314C28.9376 38.8385 28.2901 38.6909 27.983 38.2027L23.3454 30.1773C23.1592 29.8501 22.7443 29.7287 22.4092 29.906C22.0705 30.0852 21.9394 30.5031 22.1135 30.8432L26.1852 39.2842C26.4179 39.8169 26.1716 40.4371 25.639 40.6697C25.1063 40.9023 24.4873 40.6584 24.2547 40.1257L20.827 31.3941C20.6911 31.0438 20.3007 30.862 19.9435 30.9871C19.5856 31.1125 19.3939 31.4993 19.5076 31.8584L21.8725 39.5209C22.0157 40.0549 21.6966 40.6061 21.1626 40.7493C20.6286 40.8925 20.0805 40.5769 19.9373 40.0428L18.1532 32.2225C18.073 31.8534 17.7098 31.6112 17.3364 31.6819C16.9601 31.7531 16.7137 32.1147 16.7793 32.4908L17.4405 36.875C17.4941 37.3509 17.142 37.7794 16.6662 37.8331C16.1904 37.8867 15.7675 37.545 15.7139 37.0692L15.3852 32.6312C15.3605 32.2561 15.0394 31.9664 14.6614 31.9806C14.2766 31.995 13.9861 32.317 14.0005 32.7018L14.0025 32.7375C14.393 42.3373 22.2985 50 31.9937 50C41.9383 50 50 41.9379 50 31.9928C50 22.2985 42.3399 14.3934 32.7425 14.0008Z" fill="#070707" /></svg>
