<svg xmlns="http://www.w3.org/2000/svg" viewBox="-4.8 -4.15 1000 1000"><title>WebwinkelKeur</title><g stroke="none" stroke-width="1" fill="none" fill-rule="evenodd"><g transform="translate(0.00, -2.00)"><g><g><path d="M819.05,123.43 C726.97,259.63 628.21,469.70 572.98,653.37 C566.22,675.85 538.82,689.43 517.00,691.61 C502.56,693.12 477.64,689.82 469.70,674.96 C459.71,656.10 450.31,636.98 441.02,617.74 C436.98,609.33 432.88,600.96 428.64,592.63 L427.96,591.27 C426.89,589.33 425.83,587.31 424.71,585.36 C422.82,581.96 420.86,578.50 418.84,575.13 C409.73,559.39 398.82,544.73 386.35,531.48 L384.33,529.46 C383.10,528.42 381.91,527.36 380.67,526.33 C377.59,523.84 374.49,521.32 371.24,519.04 C364.45,514.39 357.38,510.16 350.08,506.37 C324.34,493.08 335.25,458.76 352.12,444.08 C374.22,424.79 406.01,421.28 431.78,435.32 C464.39,452.02 491.29,478.80 511.12,509.23 C545.65,418.03 586.49,328.57 634.12,243.15 C592.81,220.49 545.55,207.37 495.19,207.37 C335.02,207.37 204.73,337.67 204.73,497.85 C204.73,658.00 335.02,788.30 495.19,788.30 C655.34,788.30 785.64,658.00 785.64,497.85 C785.64,454.29 775.95,412.99 758.70,375.87 C776.74,338.97 795.40,303.38 814.25,269.89 C860.32,334.20 887.56,412.87 887.56,497.85 C887.56,559.74 873.11,618.28 847.49,670.38 C831.10,701.17 836.05,742.54 836.05,742.54 L836.02,742.57 C839.55,768.38 841.22,795.31 842.00,818.10 C842.90,844.00 823.19,844.10 816.27,843.83 C790.54,842.87 764.38,839.32 743.90,835.87 L743.87,835.87 C706.60,831.41 679.40,844.19 679.40,844.19 C624.43,873.55 561.72,890.22 495.19,890.22 C278.83,890.22 102.80,714.21 102.80,497.85 C102.80,281.49 278.83,105.45 495.19,105.45 C564.57,105.45 629.74,123.66 686.36,155.39 C704.97,126.37 724.70,98.11 745.21,70.46 C671.81,27.42 586.41,2.66 495.19,2.66 C221.70,2.66 0,224.36 0,497.84 C0,771.33 221.70,993.03 495.19,993.03 C558.37,993.03 618.75,981.13 674.28,959.52 C674.28,959.52 726.72,941.03 786.97,948.66 C821.99,954.20 867.46,959.48 913.84,959.57 C913.84,959.57 959.06,962.52 957.94,914.65 C957.94,914.65 958.56,864.45 946.58,785.41 C945.11,775.10 939.80,726.94 957.28,675.54 C958.50,672.40 959.64,669.23 960.80,666.05 C961.55,664.12 962.43,662.27 963.06,660.27 C965.22,653.50 967.59,647.86 968.76,642.44 C982.77,596.70 990.37,548.17 990.37,497.84 C990.37,348.23 923.94,214.23 819.05,123.43" fill="#E9098A"/></g><path d="M495.19,105.45 C278.83,105.45 102.80,281.49 102.80,497.85 C102.80,714.21 278.83,890.22 495.19,890.22 C561.72,890.22 624.43,873.55 679.40,844.19 C679.40,844.19 706.60,831.41 743.87,835.87 L743.90,835.87 C764.38,839.32 790.54,842.87 816.27,843.83 C823.19,844.10 842.90,844.00 842.00,818.10 C841.22,795.31 839.55,768.38 836.02,742.57 L836.05,742.54 C836.05,742.54 831.10,701.17 847.49,670.38 C873.11,618.28 887.56,559.74 887.56,497.85 C887.56,412.87 860.32,334.20 814.25,269.89 C795.40,303.38 776.74,338.97 758.70,375.87 C775.95,412.99 785.64,454.29 785.64,497.85 C785.64,658.00 655.34,788.30 495.19,788.30 C335.02,788.30 204.73,658.00 204.73,497.85 C204.73,337.67 335.02,207.37 495.19,207.37 C545.55,207.37 592.81,220.49 634.12,243.15 C586.49,328.57 545.65,418.03 511.12,509.23 C491.29,478.80 464.39,452.02 431.78,435.32 C406.01,421.28 374.22,424.79 352.12,444.08 C335.25,458.76 324.34,493.08 350.08,506.37 C357.38,510.16 364.45,514.39 371.24,519.04 C374.49,521.32 377.59,523.84 380.67,526.33 C381.91,527.36 383.10,528.42 384.33,529.46 L386.35,531.48 C398.82,544.73 409.73,559.39 418.84,575.13 C420.86,578.50 422.82,581.96 424.71,585.36 C425.83,587.31 426.89,589.33 427.96,591.27 L428.64,592.63 C432.88,600.96 436.98,609.33 441.02,617.74 C450.31,636.98 459.71,656.10 469.70,674.96 C477.64,689.82 502.56,693.12 517.00,691.61 C538.82,689.43 566.22,675.85 572.98,653.37 C628.21,469.70 726.97,259.63 819.05,123.43 C796.17,103.62 771.48,85.86 745.21,70.46 C724.70,98.11 704.97,126.37 686.36,155.39 C629.74,123.66 564.57,105.45 495.19,105.45" fill="#FFFFFF"/></g></g></g></svg>
